<!DOCTYPE svg PUBLIC "-//W3C//DTD SVG 1.1//EN" "http://www.w3.org/Graphics/SVG/1.1/DTD/svg11.dtd">
<!-- Uploaded to: SVG Repo, www.svgrepo.com, Transformed by: SVG Repo Mixer Tools -->
<svg height="217px" width="217px" version="1.1" id="Layer_1" xmlns="http://www.w3.org/2000/svg" xmlns:xlink="http://www.w3.org/1999/xlink" viewBox="0 0 512.00 512.00" xml:space="preserve" fill="#000000">
<g id="SVGRepo_bgCarrier" stroke-width="0"/>
<g id="SVGRepo_tracerCarrier" stroke-linecap="round" stroke-linejoin="round" stroke="#CCCCCC" stroke-width="1.024"/>
<g id="SVGRepo_iconCarrier"> <path style="fill:#22c55d;" d="M0,256.006C0,397.402,114.606,512.004,255.996,512C397.394,512.004,512,397.402,512,256.006 C512.009,114.61,397.394,0,255.996,0C114.606,0,0,114.614,0,256.006z"/> <path style="fill:#22c55d;" d="M510.033,287.261c-0.055-0.021-0.113-0.036-0.164-0.07c-0.29-0.383-0.4-0.869-0.78-1.186 c-0.206-0.172-170.757-170.82-171.137-171.137c-0.206-0.172-0.486-0.159-0.707-0.302c-0.29-0.383-0.4-0.869-0.781-1.187 c-1.99-1.662-4.781-1.969-7.066-0.755l-16.149,8.445c-0.178-0.166-0.417-0.31-0.601-0.477c-0.492-0.506-6.897-6.948-7.441-7.44 c-3.572-3.667-8.343-7.081-15.046-9.122c-18.891-5.713-97.028,8.701-112.615,11.669c-0.019,0-0.034,0.005-0.05,0.005 c-0.153,0.031-0.303,0.069-0.45,0.107h-0.016c-0.5,0.135-0.911,0.417-1.348,0.657c-1.185-0.371-2.45-0.512-3.724-0.122 c-7.344,2.231-16.713,9.946-19.041,18.508l-19.178,70.468c-0.727,2.673,0.402,5.355,2.561,6.865 c0.414,0.573,27.415,27.687,27.847,28.039l-56.577,9.401c-2.825,0.468-4.993,2.757-5.309,5.606 c-0.261,2.334,0.823,4.525,2.671,5.853c0.406,0.574,10.881,11.033,11.161,11.305c-2.036,5.222-3.298,11.966-2.049,20.391 c1.94,13.062,19.506,39.588,44.11,75.633c4.375,6.412,8.625,12.63,12.484,18.399c0.985,1.739,118.897,121.001,119.509,121.565 c0.32,0.342,0.722,0.737,1.141,1.14C405.771,493.733,496.022,402.3,510.033,287.261z"/> <g> <path style="fill:#F4F6F9;" d="M269.38,312.791c-1.391-1.006-3.113-1.406-4.819-1.137l-77.135,12.811 c3.372-8.273,7.889-17.557,13.894-27.949l22.122-3.675c2.403-0.4,4.369-2.125,5.075-4.457c0.706-2.332,0.031-4.857-1.744-6.525 l-44.794-42.05c-1.459-1.362-3.466-1.969-5.431-1.644l-68.978,11.462c-2.825,0.468-4.994,2.756-5.31,5.606 c-0.319,2.844,1.297,5.556,3.95,6.638l12.491,5.075c-3.354,5.556-6.394,14.131-4.659,25.838 c1.94,13.062,19.506,39.587,44.11,75.631c4.375,6.413,8.625,12.631,12.484,18.4c0.985,1.738,1.831,2.794,2.225,3.25 c0.265,0.303,0.624,0.447,0.929,0.689c0.239,0.907,0.628,1.782,1.28,2.542c3.456,4.013,18.515,16,28.956,16 c0.672,0,1.325-0.05,1.953-0.156l71.509-11.882c3.444-0.569,5.794-3.801,5.281-7.25l-10.828-72.981 C271.69,315.329,270.767,313.804,269.38,312.791z M165.711,356.785c-16.646-24.419-37.446-55.362-39.006-65.875 c-2.15-14.507,6.034-21.318,6.319-21.55c1.822-1.394,2.759-3.657,2.453-5.932c-0.285-2.118-1.603-3.943-3.497-4.881l43.547-7.237 l33.05,31.025l-12.316,2.05c-1.866,0.306-3.497,1.425-4.46,3.056C173.696,318.066,167.108,340.685,165.711,356.785z M203.97,396.503c-3.225-0.019-15.338-7.069-19.194-11.556c-0.279-0.325-0.649-0.503-0.974-0.757 c-0.176-0.643-0.391-1.283-0.779-1.867c-0.343-0.512-0.688-1.031-1.038-1.556c-1.94-3.505-7.184-16.404,0.579-42.521l77.671-12.898 l8.95,60.319L203.97,396.503z"/> <path style="fill:#F4F6F9;" d="M401.115,232.329l-49.375-57.344c-1.181-1.375-2.891-2.181-4.703-2.225 c-1.825-0.037-3.559,0.688-4.8,2.006l-45.116,47.788c-2.297,2.431-2.334,6.219-0.087,8.693l49.878,54.969 c-7.011,1.313-14.897,2.264-23.988,2.612l-2.531-14.431c-0.494-2.831-2.822-4.988-5.687-5.263 c-2.822-0.225-5.556,1.388-6.591,4.075l-24.69,64.337c-0.819,2.131-0.437,4.538,0.997,6.313l49.347,61.093 c1.244,1.543,3.09,2.381,4.981,2.381c0.891,0,1.794-0.188,2.644-0.575c2.656-1.206,4.162-4.057,3.657-6.931l-3.291-18.756 c7.041-0.188,16.891-2.256,25.438-10.688c8.847-8.725,19.644-42.1,33.932-88.293c2.494-8.068,4.86-15.725,7.009-22.437 c0.897-2.3,1.222-3.812,1.284-4.125v-0.016l0.006-0.016C410.83,248.16,408.033,240.359,401.115,232.329z M358.208,361.273 c-9.71,9.575-22.084,6.644-22.562,6.531c-2.107-0.562-4.356-0.006-5.959,1.475c-1.606,1.482-2.35,3.668-1.972,5.819l0.447,2.55 l-31.466-38.956l15.372-40.057c1.14,1.913,3.159,3.113,5.59,3.132c34.215-0.444,55.791-8.25,69.344-17.338 C377.737,314.322,364.974,354.597,358.208,361.273z M361,282.694l-50.508-55.66l36.178-38.319l44.743,51.963 c4.06,4.716,5.968,9.055,5.437,12.261c-0.293,0.911-0.59,1.827-0.893,2.777C393.571,261.466,385.493,274.762,361,282.694z"/> <path style="fill:#F4F6F9;" d="M137.989,213.11l62.031,19.563c0.628,0.194,1.278,0.293,1.925,0.293 c1.062,0,2.118-0.262,3.066-0.781c1.532-0.837,2.653-2.256,3.109-3.937l18.067-66.38c5.605,7.057,11.601,15.558,17.946,25.886 c-3.828,4.319-5.397,5.9-5.956,6.437c-1.687,1.075-2.822,2.918-2.944,5.019c-0.175,2.988,1.741,5.694,4.609,6.531 c0.766,0.219,1.446,0.35,2.107,0.35c0.631,0,1.241-0.118,1.882-0.387l67.819-11.263c2.384-0.394,4.34-2.1,5.059-4.406 l21.765-69.838c0.772-2.468-0.022-5.163-2.01-6.819c-1.99-1.663-4.781-1.969-7.066-0.756l-17.794,9.307 c-3.113-6.138-9.359-14.219-21.444-17.9c-18.891-5.712-97.028,8.7-112.615,11.668c-0.019,0-0.034,0.006-0.05,0.006 c-0.154,0.031-0.303,0.068-0.45,0.107h-0.006h-0.01c-0.5,0.135-0.911,0.417-1.348,0.658c-1.185-0.37-2.45-0.512-3.724-0.121 c-7.344,2.231-16.713,9.943-19.041,18.507l-19.178,70.468C132.836,208.641,134.715,212.073,137.989,213.11z M286.443,116.278 c12.81,3.9,15.359,15.425,15.45,15.862c0.381,1.987,1.678,3.681,3.503,4.562c1.815,0.875,3.953,0.85,5.75-0.094l10.518-5.5 l-16.003,51.35l-47.519,7.893c0.531-1.7,0.34-3.587-0.612-5.181c-20.86-34.994-39.066-52.588-52.857-61.331 C241.743,117.616,277.418,113.548,286.443,116.278z M165.267,138.217c0.95-3.488,6.203-8.343,10.41-9.619 c0.412-0.125,0.724-0.393,1.089-0.588c0.951,0.306,1.956,0.468,3.011,0.288c0.633-0.06,14.478-1.041,36.522,22.135 c-0.195,0.384-0.46,0.72-0.578,1.152L197.52,218.46l-49.815-15.712L165.267,138.217z"/> </g> </g>
</svg>